<svg viewBox="0 0 512 512" xml:space="preserve" xmlns="http://www.w3.org/2000/svg" enable-background="new 0 0 512 512"><path d="M489 255.9v-.7c0-1.6 0-3.2-.1-4.7 0-.9-.1-1.8-.1-2.8 0-.9-.1-1.8-.1-2.7-.1-1.1-.1-2.2-.2-3.3 0-.7-.1-1.4-.1-2.1l-.3-3.6c0-.5-.1-1.1-.1-1.6-.1-1.3-.3-2.6-.4-4 0-.3-.1-.7-.1-1C474.3 113.2 375.7 22.9 256 22.9S37.7 113.2 24.5 229.5c0 .3-.1.7-.1 1-.1 1.3-.3 2.6-.4 4-.1.5-.1 1.1-.1 1.6l-.3 3.6c0 .7-.1 1.4-.1 2.1-.1 1.1-.1 2.2-.2 3.3 0 .9-.1 1.8-.1 2.7 0 .9-.1 1.8-.1 2.8 0 1.6-.1 3.2-.1 4.7V256.9c0 1.6 0 3.2.1 4.7 0 .9.1 1.8.1 2.8 0 .9.1 1.8.1 2.7.1 1.1.1 2.2.2 3.3 0 .7.1 1.4.1 2.1l.3 3.6c0 .5.1 1.1.1 1.6.1 1.3.3 2.6.4 4 0 .3.1.7.1 1C37.7 398.8 136.3 489.1 256 489.1s218.3-90.3 231.5-206.5c0-.3.1-.7.1-1 .1-1.3.3-2.6.4-4 .1-.5.1-1.1.1-1.6l.3-3.6c0-.7.1-1.4.1-2.1.1-1.1.1-2.2.2-3.3 0-.9.1-1.8.1-2.7 0-.9.1-1.8.1-2.8 0-1.6.1-3.2.1-4.7V255.9c0 .1 0 .1 0 0z" fill="#f23574" class="fill-2bb673"></path><path d="m213.6 344.2 156.1-156M233.8 345.2l-79.1-79.1" fill="none" stroke="#ffffff" stroke-width="30" stroke-miterlimit="10" class="stroke-ffffff"></path></svg>